<svg width="150" height="150" viewBox="0 0 150 150" fill="none" xmlns="http://www.w3.org/2000/svg">
  <g clip-path="url(#clip0_23601_1938)">
    <path
      d="M0 75.0025C0 33.5756 33.5725 0 75.0038 0C116.435 0 150 33.5756 150 75.0025C150 111.245 124.304 141.481 90.129 148.479C85.2462 149.481 80.1877 150 75.0264 150H0V75V75.0025Z"
      fill="#027E6F" />
    <path
      d="M126.938 67.8935H93.1668L84.7887 81.6791H113.009C108.643 105.657 81.976 121.982 55.3312 108.174C49.6003 105.208 44.9358 100.621 41.9198 94.89C26.5913 65.703 47.5302 36.3403 75.1661 36.3403C86.7559 36.3403 97.1764 41.5018 104.232 49.6491L111.634 37.462C101.414 27.4653 87.1097 21.6063 71.4827 22.7079C45.4125 24.5044 24.2753 46.1137 23.0057 72.2094C21.5579 102.172 45.5104 126.995 75.151 126.995C104.792 126.995 127.369 103.562 127.369 74.7738C127.369 72.4327 127.191 70.1393 126.897 67.8935H126.945H126.938Z"
      fill="white" />
  </g>
  <defs>
    <clipPath id="clip0_23601_1938">
      <rect width="150" height="150" fill="white" />
    </clipPath>
  </defs>
</svg>
