<?xml version="1.0" encoding="UTF-8"?>
<svg width="504px" height="504px" viewBox="0 0 504 504" version="1.1" xmlns="http://www.w3.org/2000/svg" xmlns:xlink="http://www.w3.org/1999/xlink">
    <!-- Generator: Sketch 53.2 (72643) - https://sketchapp.com -->
    <title>extension-outline</title>
    <desc>Created with Sketch.</desc>
    <g id="extension-outline" stroke="none" stroke-width="1" fill="none" fill-rule="evenodd">
        <g id="presentation"></g>
        <g id="ic_extension_black_24px" fill="#000000" fill-rule="nonzero">
            <g id="Group">
                <path d="M156.947368,391.815789 C156.947368,354.288336 187.393599,323.842105 224.921053,323.842105 C262.448506,323.842105 292.894737,354.288336 292.894737,391.815789 L292.894737,399 L328.263158,399 C337.333599,399 344.842105,391.491494 344.842105,382.421053 L344.842105,305.052632 L394.026316,305.052632 C408.35781,305.052632 420,293.410441 420,279.078947 C420,264.747453 408.35781,253.105263 394.026316,253.105263 L344.842105,253.105263 L344.842105,175.736842 C344.842105,166.666401 337.333599,159.157895 328.263158,159.157895 L250.894737,159.157895 L250.894737,109.973684 C250.894737,95.6421903 239.252547,84 224.921053,84 C210.589559,84 198.947368,95.6421903 198.947368,109.973684 L198.947368,159.157895 L121.578947,159.157895 C112.576798,159.157895 105.187895,166.59811 105.187895,175.736842 L105.187895,211.105263 L112.184211,211.105263 C149.711664,211.105263 180.157895,241.551494 180.157895,279.078947 C180.157895,316.606401 149.711664,347.052632 112.184211,347.052632 L105,347.052632 L105,382.421053 C105,391.491494 112.508506,399 121.578947,399 L156.947368,399 L156.947368,391.815789 Z M386.842105,382.421053 C386.842105,414.687453 360.529559,441 328.263158,441 L250.894737,441 L250.894737,391.815789 C250.894737,377.484296 239.252547,365.842105 224.921053,365.842105 C210.589559,365.842105 198.947368,377.484296 198.947368,391.815789 L198.947368,441 L121.578947,441 C89.3125466,441 63,414.687453 63,382.421053 L63,305.052632 L112.184211,305.052632 C126.515704,305.052632 138.157895,293.410441 138.157895,279.078947 C138.157895,264.747453 126.515704,253.105263 112.184211,253.105263 L63.1878947,253.105263 L63.1878947,175.736842 C63.1878947,143.466967 89.3155248,117.157895 121.578947,117.157895 L156.947368,117.157895 L156.947368,109.973684 C156.947368,72.4462308 187.393599,42 224.921053,42 C262.448506,42 292.894737,72.4462308 292.894737,109.973684 L292.894737,117.157895 L328.263158,117.157895 C360.529559,117.157895 386.842105,143.470441 386.842105,175.736842 L386.842105,211.105263 L394.026316,211.105263 C431.553769,211.105263 462,241.551494 462,279.078947 C462,316.606401 431.553769,347.052632 394.026316,347.052632 L386.842105,347.052632 L386.842105,382.421053 Z" id="Combined-Shape-Copy-34"></path>
            </g>
        </g>
    </g>
</svg>