<svg viewBox="2.084 2.136 15.834 15.834" xmlns="http://www.w3.org/2000/svg"><path fill-rule="evenodd" clip-rule="evenodd" fill="currentColor" d="M15.834 12.188C15.834 11.897 15.41 11.791 15.254 12.037C14.408 13.375 13.271 14.512 11.933 15.358C11.687 15.514 11.793 15.938 12.084 15.938C13.647 15.938 14.428 15.938 14.975 15.54C15.152 15.412 15.308 15.256 15.436 15.079C15.834 14.532 15.834 13.75 15.834 12.188M7.917 4.271C6.355 4.271 5.574 4.271 5.026 4.669C4.849 4.798 4.694 4.953 4.565 5.13C4.168 5.678 4.168 6.459 4.168 8.021L4.168 12.188C4.168 13.75 4.168 14.532 4.565 15.079C4.694 15.256 4.849 15.412 5.026 15.54C5.447 15.846 6.006 15.916 6.951 15.932C11.695 15.591 15.484 11.803 15.829 7.059C15.813 6.112 15.742 5.552 15.436 5.13C15.308 4.953 15.152 4.798 14.975 4.669C14.428 4.271 13.647 4.271 12.084 4.271L7.917 4.271M11.042 8.854C11.388 8.854 11.667 9.134 11.667 9.479C11.667 9.824 11.388 10.104 11.042 10.104L6.876 10.104C6.531 10.104 6.251 9.824 6.251 9.479C6.251 9.134 6.531 8.854 6.876 8.854L11.042 8.854M13.126 6.354C13.471 6.354 13.75 6.634 13.751 6.979C13.751 7.325 13.471 7.604 13.126 7.604L6.876 7.604C6.531 7.604 6.251 7.324 6.251 6.979C6.251 6.634 6.531 6.354 6.876 6.354L13.126 6.354Z"></path></svg>
