<svg viewBox="1.632 1.594 16.787 16.787" xmlns="http://www.w3.org/2000/svg"><path fill="currentColor" d="M10.024 3.187C11.14 3.187 12.043 4.089 12.043 5.201C12.043 6.313 11.14 7.214 10.024 7.214C8.909 7.214 8.005 6.313 8.005 5.201C8.005 4.089 8.909 3.187 10.024 3.187M13.834 16.453L13.836 16.453L10.331 14.534C10.14 14.429 9.908 14.429 9.718 14.534L6.213 16.453C5.649 16.762 5.034 16.136 5.359 15.585L9.477 8.608C9.721 8.192 10.326 8.192 10.57 8.608L14.688 15.585C15.013 16.136 14.4 16.762 13.834 16.453Z"></path></svg>
