<svg viewBox="0 0 20 20" xmlns="http://www.w3.org/2000/svg"><path fill="currentColor" d="M19.813 5.337C19.594 2.58 17.4 0.392 14.645 0.178C11.547 -0.062 8.435 -0.06 5.337 0.187C2.58 0.405 0.392 2.598 0.178 5.355C-0.062 8.453 -0.06 11.565 0.187 14.663C0.406 17.42 2.6 19.608 5.355 19.822C8.454 20.062 11.565 20.06 14.663 19.813C17.42 19.594 19.608 17.4 19.822 14.645C20.062 11.546 20.06 8.435 19.813 5.337M10.024 3.187C11.14 3.187 12.043 4.089 12.043 5.201C12.043 6.313 11.14 7.214 10.024 7.214C8.909 7.214 8.005 6.313 8.005 5.201C8.005 4.089 8.909 3.187 10.024 3.187M13.834 16.453L13.836 16.453L10.331 14.534C10.14 14.429 9.908 14.429 9.718 14.534L6.213 16.453C5.649 16.762 5.034 16.136 5.359 15.585L9.477 8.608C9.721 8.192 10.326 8.192 10.57 8.608L14.688 15.585C15.013 16.136 14.4 16.762 13.834 16.453Z"></path></svg>
