<svg xmlns="http://www.w3.org/2000/svg" width="24" height="24" viewBox="0 0 24 24" fill="none" class="S2rLS" data-testid="hero-icon"><path d="M18.4895 22.669L12.8177 19.563C12.5094 19.3927 12.1337 19.3927 11.8254 19.563L6.15358 22.669C5.24057 23.168 4.24536 22.1552 4.77085 21.2628L11.435 9.97192C11.8313 9.29964 12.8089 9.29964 13.2052 9.97192L19.8693 21.2628C20.3948 22.1552 19.4025 23.168 18.4866 22.669H18.4895ZM12.3216 7.71728C14.127 7.71728 15.589 6.25822 15.589 4.45862C15.589 2.65901 14.127 1.19995 12.3216 1.19995C10.5161 1.19995 9.05409 2.65901 9.05409 4.45862C9.05409 6.25822 10.5161 7.71728 12.3216 7.71728Z" class="KZj1D"></path></svg>
