<?xml version="1.0" encoding="UTF-8"?><svg id="Layer_2" xmlns="http://www.w3.org/2000/svg" viewBox="0 0 600 600"><g id="Components"><g id="_3181e921-5e09-415c-b2cb-9a7684faf60e_5"><path d="M594.3931,160.1089c-6.5863-82.7213-72.379-148.3544-155.0464-154.7753-92.9517-7.1829-186.286-7.1286-279.2377.2711C77.3874,12.1369,11.7544,77.9326,5.3336,160.6539c-7.1829,92.9518-7.1287,186.2833.2714,279.2352,6.5863,82.7213,72.382,148.3542,155.049,154.7751,92.952,7.1857,186.2831,7.1316,279.2352-.271,82.7212-6.5864,148.3546-72.3822,154.7754-155.0463,7.1854-92.9519,7.1312-186.2862-.2714-279.238ZM300.7322,95.6201c33.4688,0,60.5706,27.0477,60.5706,60.4079s-27.1018,60.4079-60.5706,60.4079-60.5702-27.0477-60.5702-60.4079,27.1018-60.4079,60.5702-60.4079ZM415.019,493.605h.0542l-105.1432-57.5771c-5.7158-3.1563-12.6819-3.1563-18.3951,0l-105.1432,57.5771c-16.9255,9.2518-35.372-9.523-25.6318-26.0689l123.538-209.3044c7.3455-12.4622,25.4696-12.4622,32.8151,0l123.5384,209.3044c9.7397,16.5459-8.6525,35.3207-25.6322,26.0689Z" style="fill:#fff; stroke-width:0px;"/></g></g></svg>